# xmcd
#
# Track frame offsets:
#	150
#	16232
#	30398
#	43282
#	56107
#	70742
#	85060
#	98702
#	112323
#	126754
#	140525
#	154409
#	168738
#	180119
#	194390
#	208403
#
# Disc length: 2938 seconds
#
# Revision: 0
# Processed by: cddbd v1.5.1PL2 Copyright (c) Steve Scherf et al.
# Submitted via: EasyCDDAExtractor 9.1.3.1
#
DISCID=e60b7810
DTITLE=Dario Moréno - Printemps à Rio
DYEAR=2004
DGENRE=Chanson
TTITLE0=Caramba
TTITLE1=Printemps à Rio
TTITLE2=Mé qué, mé qué
TTITLE3=Missirlou
TTITLE4=Un amour pleurait
TTITLE5=Viens
TTITLE6=La chance
TTITLE7=Luna rossa
TTITLE8=Embrassons-nous
TTITLE9=Granada
TTITLE10=Jezebzl
TTITLE11=Maria Christina veut toujours commander
TTITLE12=Amigo mio
TTITLE13=Quizas, Quizas
TTITLE14=Anoché hablé con la luna
TTITLE15=Vatapa
EXTD=
EXTT0=
EXTT1=
EXTT2=
EXTT3=
EXTT4=
EXTT5=
EXTT6=
EXTT7=
EXTT8=
EXTT9=
EXTT10=
EXTT11=
EXTT12=
EXTT13=
EXTT14=
EXTT15=
PLAYORDER=
